<?xml version="1.0" encoding="UTF-8"?>
<svg xmlns="http://www.w3.org/2000/svg" xmlns:xlink="http://www.w3.org/1999/xlink" width="200px" height="200px" viewBox="0 0 200 200" version="1.1">
<g id="surface1">
<path style=" stroke:none;fill-rule:evenodd;fill:rgb(85.882353%,28.235294%,22.352941%);fill-opacity:1;" d="M 94.429688 34.757812 C 77.671875 39.148438 70.128906 56.976562 78.761719 71.777344 C 79.613281 73.234375 80.484375 74.707031 80.675781 75 C 80.78125 75.160156 81.640625 76.65625 82.589844 78.320312 C 84.074219 80.9375 86.027344 84.363281 86.761719 85.644531 C 86.882812 85.859375 87.421875 86.78125 87.957031 87.695312 C 88.492188 88.609375 89.472656 90.324219 90.132812 91.503906 C 90.796875 92.683594 91.910156 94.617188 92.613281 95.800781 C 93.3125 96.984375 94.449219 98.945312 95.136719 100.160156 C 95.824219 101.375 96.472656 102.519531 96.582031 102.699219 C 96.691406 102.878906 97.074219 103.554688 97.4375 104.199219 C 99.222656 107.367188 99.855469 108.398438 100.003906 108.398438 C 100.09375 108.398438 100.976562 106.96875 101.96875 105.222656 C 102.964844 103.480469 104.394531 100.996094 105.152344 99.707031 C 105.910156 98.417969 106.671875 97.097656 106.847656 96.777344 C 107.636719 95.335938 108.21875 94.3125 109.175781 92.675781 C 109.742188 91.710938 110.707031 90.039062 111.316406 88.964844 C 112.933594 86.125 113.226562 85.621094 114.28125 83.832031 C 114.804688 82.941406 115.234375 82.175781 115.234375 82.125 C 115.234375 82.054688 116.292969 80.226562 116.988281 79.101562 C 117.523438 78.238281 118.507812 76.515625 119.085938 75.433594 C 119.449219 74.761719 120.339844 73.222656 121.066406 72.015625 C 122.683594 69.339844 123.707031 66.773438 124.4375 63.574219 C 124.796875 61.996094 124.851562 56.09375 124.523438 54.589844 C 122.679688 46.183594 118.027344 40.164062 110.527344 36.492188 C 109.6875 36.078125 108.90625 35.742188 108.792969 35.742188 C 108.679688 35.742188 108.4375 35.660156 108.25 35.558594 C 105.746094 34.203125 98.210938 33.765625 94.429688 34.757812 M 103.066406 50.078125 C 103.367188 50.222656 104.039062 50.550781 104.5625 50.804688 C 108.65625 52.804688 110.5625 58.707031 108.464844 62.898438 C 105.480469 68.863281 97.941406 70.175781 93.347656 65.535156 C 92.445312 64.621094 92.101562 64.109375 91.308594 62.5 C 89.25 58.328125 91.777344 52.265625 96.390625 50.296875 C 98.046875 49.589844 101.808594 49.464844 103.066406 50.078125 "/>
<path style=" stroke:none;fill-rule:evenodd;fill:rgb(35.686275%,32.941176%,35.686275%);fill-opacity:1;" d="M 97.363281 33.984375 C 97.296875 34.09375 97.460938 34.179688 97.742188 34.179688 C 98.015625 34.179688 98.242188 34.09375 98.242188 33.984375 C 98.242188 33.878906 98.070312 33.789062 97.863281 33.789062 C 97.65625 33.789062 97.429688 33.878906 97.363281 33.984375 M 93.445312 52.390625 L 92.871094 53.027344 L 93.554688 52.441406 C 93.929688 52.117188 94.273438 51.832031 94.320312 51.804688 C 94.363281 51.78125 94.316406 51.757812 94.210938 51.757812 C 94.105469 51.757812 93.761719 52.042969 93.445312 52.390625 M 108.417969 55.078125 C 108.414062 55.132812 108.585938 55.789062 108.800781 56.542969 C 109.085938 57.550781 109.167969 57.707031 109.109375 57.128906 C 109.042969 56.488281 108.457031 54.742188 108.417969 55.078125 M 124.984375 58.15625 C 125.078125 58.828125 125.089844 58.84375 125.15625 58.324219 C 125.195312 58.015625 125.148438 57.6875 125.054688 57.59375 C 124.957031 57.496094 124.925781 57.734375 124.984375 58.15625 M 74.804688 59.863281 C 74.804688 60.488281 74.84375 60.964844 74.890625 60.914062 C 75.039062 60.769531 75.078125 59 74.9375 58.859375 C 74.863281 58.785156 74.804688 59.238281 74.804688 59.863281 M 90.847656 60.742188 C 90.847656 60.902344 90.921875 61.210938 91.015625 61.425781 C 91.121094 61.671875 91.183594 61.707031 91.183594 61.523438 C 91.183594 61.363281 91.109375 61.054688 91.015625 60.839844 C 90.910156 60.59375 90.847656 60.558594 90.847656 60.742188 M 108.617188 61.78125 C 108.296875 62.585938 108.351562 62.886719 108.699219 62.222656 C 108.863281 61.910156 108.960938 61.558594 108.914062 61.441406 C 108.871094 61.324219 108.738281 61.476562 108.617188 61.78125 M 107.667969 63.914062 C 107.390625 64.265625 107.003906 65.039062 107.101562 65.039062 C 107.148438 65.039062 107.371094 64.730469 107.589844 64.355469 C 107.996094 63.671875 108.03125 63.457031 107.667969 63.914062 M 79.980469 74.414062 C 80.148438 74.738281 80.328125 75 80.382812 75 C 80.433594 75 80.34375 74.738281 80.175781 74.414062 C 80.007812 74.09375 79.828125 73.828125 79.773438 73.828125 C 79.722656 73.828125 79.8125 74.09375 79.980469 74.414062 M 118.011719 105.074219 C 117.511719 105.289062 117.199219 105.957031 117.339844 106.503906 C 117.464844 106.972656 118.03125 107.179688 120.410156 107.609375 C 121.484375 107.800781 122.710938 108.105469 123.132812 108.28125 C 124.105469 108.691406 124.46875 108.40625 124.492188 107.21875 L 124.511719 106.410156 L 122.421875 105.753906 C 120.070312 105.011719 118.671875 104.796875 118.011719 105.074219 M 109.667969 108.296875 C 111.261719 109.691406 119.710938 113.332031 121.96875 113.597656 L 123.058594 113.726562 L 122.9375 112.871094 C 122.375 108.886719 121.644531 108.414062 115.722656 108.191406 C 113.46875 108.105469 111.050781 107.980469 110.351562 107.910156 L 109.082031 107.785156 L 109.667969 108.296875 M 105.226562 109.929688 C 103.847656 111.453125 104.140625 112.816406 105.925781 113.167969 C 107.621094 113.5 108.601562 112.523438 106.984375 112.109375 C 105.707031 111.78125 105.664062 111.757812 105.664062 111.363281 C 105.664062 111.117188 105.921875 110.894531 106.460938 110.683594 C 107.15625 110.410156 107.246094 110.304688 107.191406 109.824219 C 107.085938 108.902344 106.105469 108.957031 105.226562 109.929688 M 112.265625 112.035156 C 112.636719 112.726562 118.546875 118.070312 120.527344 119.503906 C 121.542969 120.242188 124.75 118.734375 124.351562 117.703125 C 123.972656 116.714844 115.265625 112.265625 112.804688 111.804688 C 112.125 111.679688 112.082031 111.695312 112.265625 112.035156 M 98.507812 119.578125 C 89.851562 131.222656 86.273438 138.949219 84.570312 149.652344 C 84.03125 153.046875 84.058594 153.097656 85.441406 151.242188 C 88.804688 146.738281 90.269531 145.207031 90.523438 145.941406 C 90.570312 146.078125 90.636719 147.433594 90.667969 148.953125 C 90.742188 152.6875 91.179688 153.253906 92.898438 151.84375 C 93.367188 151.460938 93.835938 151.203125 93.945312 151.269531 C 94.238281 151.449219 94.179688 156.339844 93.847656 159.277344 C 93.46875 162.628906 93.46875 163.847656 93.851562 163.992188 C 95.734375 164.714844 99.769531 149.808594 101.753906 134.792969 C 102.367188 130.128906 102.425781 130.261719 100.628906 132.183594 C 97.328125 135.726562 97.597656 132.941406 101.3125 125.097656 C 103.515625 120.453125 104.210938 118.796875 104.039062 118.621094 C 103.785156 118.367188 103.175781 119.171875 101.550781 121.898438 C 99.636719 125.101562 98.960938 125.9375 98.550781 125.601562 C 98.183594 125.296875 98.507812 123.929688 99.710938 120.703125 C 100.792969 117.796875 101.554688 115.625 101.496094 115.625 C 101.46875 115.625 100.128906 117.40625 98.507812 119.578125 M 97.363281 116.15625 C 92.164062 117.410156 87.640625 120.871094 80.578125 129.003906 C 72.144531 138.714844 71.6875 139.851562 79.210938 132.414062 C 90.101562 121.652344 92.96875 119.195312 92.96875 120.625 C 92.96875 121.652344 91.46875 123.519531 86.746094 128.394531 C 79.316406 136.054688 78.042969 137.726562 74.730469 144.152344 C 71.992188 149.464844 71.160156 151.757812 71.972656 151.757812 C 72.617188 151.757812 75.484375 147.398438 79.488281 140.332031 C 82.148438 135.636719 82.828125 134.753906 80.765625 138.671875 C 77.472656 144.933594 75.519531 149.398438 75.625 150.445312 L 75.683594 151.074219 L 76.417969 150.328125 C 77.898438 148.816406 81.023438 144.082031 88.035156 132.714844 C 94.574219 122.117188 97.164062 118.121094 98.382812 116.777344 L 99.070312 116.015625 L 98.410156 116.039062 C 98.050781 116.050781 97.578125 116.101562 97.363281 116.15625 M 106.851562 120.117188 C 106.828125 122.992188 107.386719 128.617188 109.472656 146.679688 C 110.832031 158.457031 110.6875 157.597656 110.722656 154.101562 C 110.804688 145.601562 111.464844 139.550781 112.304688 139.550781 C 113.28125 139.550781 113.71875 142.179688 114.359375 151.855469 C 114.878906 159.6875 115.382812 163.453125 116.097656 164.804688 L 116.375 165.332031 L 116.628906 164.746094 C 116.820312 164.304688 116.882812 162.726562 116.875 158.398438 C 116.851562 142.136719 114.734375 129.546875 110.613281 121.128906 C 109.382812 118.617188 109.15625 118.429688 109.863281 120.507812 C 110.644531 122.804688 110.574219 124.023438 109.660156 124.023438 C 108.996094 124.023438 108.351562 122.957031 107.710938 120.800781 C 107.421875 119.835938 107.117188 118.824219 107.027344 118.554688 C 106.921875 118.230469 106.863281 118.761719 106.851562 120.117188 M 111.597656 119.777344 C 111.746094 120.125 113.101562 123.089844 114.601562 126.367188 C 116.105469 129.644531 117.835938 133.421875 118.449219 134.765625 C 120.835938 139.984375 124.0625 146.300781 124.644531 146.878906 C 128.609375 150.84375 122.929688 133.058594 118.191406 126.667969 C 115.835938 123.492188 111.929688 119.140625 111.433594 119.140625 C 111.375 119.140625 111.445312 119.425781 111.597656 119.777344 "/>
<path style=" stroke:none;fill-rule:evenodd;fill:rgb(1.568627%,1.568627%,1.568627%);fill-opacity:1;" d="M 99.265625 49.945312 C 99.5625 49.988281 100.046875 49.988281 100.34375 49.945312 C 100.636719 49.898438 100.394531 49.863281 99.804688 49.863281 C 99.214844 49.863281 98.972656 49.898438 99.265625 49.945312 M 119.824219 102.03125 C 113.4375 103.390625 104.730469 108.019531 103.285156 110.824219 C 102.890625 111.589844 102.84375 113.453125 103.203125 114.277344 C 103.320312 114.542969 103.101562 114.609375 101.707031 114.714844 C 99.726562 114.867188 97.601562 115.390625 95.609375 116.222656 C 93.726562 117.003906 93.800781 117.089844 95.847656 116.496094 C 96.734375 116.238281 97.917969 115.972656 98.484375 115.898438 L 99.511719 115.769531 L 98.855469 116.425781 C 97.566406 117.714844 94.933594 121.695312 88.898438 131.492188 C 81.53125 143.445312 78.320312 148.359375 76.769531 150.046875 C 74.429688 152.589844 75.234375 149.460938 78.710938 142.476562 C 79.648438 140.597656 80.390625 139.0625 80.363281 139.0625 C 80.335938 139.0625 79.804688 139.964844 79.183594 141.066406 C 75.046875 148.394531 72.242188 152.398438 71.65625 151.8125 C 71.277344 151.433594 72.171875 149.019531 74.128906 145.140625 C 77.894531 137.683594 78.730469 136.574219 87.496094 127.441406 C 91.898438 122.851562 93.714844 120.3125 92.597656 120.3125 C 91.882812 120.3125 86.28125 125.480469 77.648438 134.101562 C 74.433594 137.3125 71.875 139.808594 71.96875 139.648438 C 74.042969 136.039062 83.855469 124.847656 88.28125 121.046875 C 90.828125 118.859375 90.996094 118.683594 89.648438 119.632812 C 72.945312 131.367188 54.6875 165.339844 54.6875 184.6875 C 54.6875 193.144531 56.503906 194.867188 66.894531 196.277344 C 79.089844 197.925781 106.5 197.742188 122.363281 195.902344 C 123.222656 195.804688 124.804688 195.625 125.878906 195.503906 C 135.195312 194.453125 141.992188 192.886719 144.054688 191.3125 C 146.648438 189.335938 145.347656 178.511719 140.90625 165.109375 C 132.242188 138.949219 118.789062 119.175781 107.160156 115.511719 C 106.550781 115.320312 106.054688 115.109375 106.054688 115.042969 C 106.054688 114.914062 108.289062 114.175781 109.296875 113.972656 C 110.914062 113.644531 113.425781 115.367188 118.03125 119.964844 C 120.886719 122.8125 121.820312 123.632812 122.207031 123.632812 C 124.507812 123.632812 126.199219 118.902344 125.355469 114.820312 C 125.03125 113.246094 125.347656 111.757812 126.546875 109.203125 C 127.65625 106.847656 128.046875 105.5625 127.867188 104.871094 C 127.25 102.503906 123.617188 101.222656 119.824219 102.03125 M 122.492188 105.65625 C 124.785156 106.367188 124.917969 106.503906 124.503906 107.703125 C 124.160156 108.699219 124.136719 108.710938 123.089844 108.339844 C 122.582031 108.15625 121.214844 107.839844 120.046875 107.628906 C 117.800781 107.226562 117.1875 106.902344 117.1875 106.121094 C 117.1875 104.695312 118.914062 104.542969 122.492188 105.65625 M 114.84375 108 C 119.703125 108.179688 120.699219 108.363281 121.652344 109.234375 C 122.75 110.242188 123.574219 113.867188 122.707031 113.867188 C 120.828125 113.867188 111.605469 110.011719 109.753906 108.453125 C 109.125 107.929688 109.171875 107.511719 109.835938 107.703125 C 110.066406 107.773438 112.320312 107.90625 114.84375 108 M 107.203125 109.417969 C 107.457031 110.105469 107.25 110.480469 106.429688 110.800781 C 105.253906 111.261719 105.507812 111.71875 107.097656 112.019531 C 108.773438 112.332031 108.023438 113.359375 106.207031 113.234375 C 104.84375 113.144531 104.296875 112.722656 104.296875 111.777344 C 104.296875 110.003906 106.699219 108.054688 107.203125 109.417969 M 114.492188 112.226562 C 117.582031 113.328125 124.257812 116.941406 124.53125 117.660156 C 124.832031 118.441406 122.882812 119.726562 121.398438 119.726562 C 120.65625 119.726562 120.367188 119.523438 116.992188 116.644531 C 111.382812 111.859375 110.859375 110.933594 114.492188 112.226562 M 100.421875 119.0625 C 98.507812 124.195312 98.144531 125.585938 98.71875 125.585938 C 99.101562 125.585938 99.710938 124.757812 101.371094 121.96875 C 102.921875 119.375 103.636719 118.359375 103.914062 118.359375 C 104.417969 118.359375 103.914062 119.773438 101.878906 124.089844 C 99.519531 129.089844 98.761719 130.996094 98.5625 132.421875 C 98.300781 134.277344 98.910156 134.15625 100.6875 132.011719 C 102.179688 130.207031 102.398438 130.121094 102.25 131.398438 C 100.335938 147.953125 96.242188 164.0625 93.953125 164.0625 C 93.40625 164.0625 93.351562 163.265625 93.691406 160.15625 C 94.015625 157.210938 94.148438 151.507812 93.902344 151.257812 C 93.820312 151.179688 93.363281 151.480469 92.878906 151.925781 C 91.894531 152.832031 91.847656 152.847656 91.28125 152.449219 C 90.601562 151.972656 90.367188 150.675781 90.527344 148.257812 C 90.75 144.84375 90.339844 144.992188 86.824219 149.609375 C 85.71875 151.058594 84.628906 152.414062 84.398438 152.617188 L 83.984375 152.992188 L 84.105469 152.03125 C 85.609375 140.070312 89.414062 131.527344 98.804688 119.015625 C 101.886719 114.90625 101.96875 114.910156 100.421875 119.0625 M 107.425781 119.578125 C 107.652344 120.359375 107.886719 121.171875 107.949219 121.386719 C 108.191406 122.242188 109.007812 123.632812 109.386719 123.835938 C 110.488281 124.421875 110.609375 122.96875 109.679688 120.3125 C 109.046875 118.496094 109.050781 118.273438 109.695312 119.222656 C 111.574219 121.988281 113.976562 129.105469 115.210938 135.558594 C 116.75 143.605469 117.621094 165.234375 116.40625 165.234375 C 115.523438 165.234375 114.929688 161.488281 114.257812 151.660156 C 113.640625 142.59375 113.148438 139.53125 112.335938 139.6875 C 111.566406 139.835938 111.21875 142.699219 110.902344 151.5625 L 110.660156 158.300781 L 110.234375 154.296875 C 109.996094 152.09375 109.359375 146.425781 108.8125 141.699219 C 106.480469 121.519531 106.066406 114.898438 107.425781 119.578125 M 113.363281 120.757812 C 118.898438 126.429688 121.597656 131.136719 124.703125 140.523438 C 126.582031 146.207031 126.515625 148.972656 124.542969 146.90625 C 123.613281 145.929688 120.382812 139.289062 113.601562 124.410156 C 110.738281 118.125 110.730469 118.058594 113.363281 120.757812 "/>
<path style=" stroke:none;fill-rule:evenodd;fill:rgb(28.627451%,27.843137%,28.235294%);fill-opacity:1;" d="M 102.589844 34.125 C 102.886719 34.167969 103.328125 34.167969 103.566406 34.121094 C 103.808594 34.074219 103.566406 34.039062 103.027344 34.039062 C 102.488281 34.042969 102.292969 34.078125 102.589844 34.125 M 114.101562 108.152344 C 114.824219 108.191406 116.054688 108.191406 116.835938 108.152344 C 117.621094 108.117188 117.03125 108.085938 115.527344 108.085938 C 114.023438 108.085938 113.382812 108.113281 114.101562 108.152344 M 121.09375 108.851562 C 121.09375 108.882812 121.378906 109.167969 121.726562 109.484375 L 122.363281 110.058594 L 121.789062 109.425781 C 121.253906 108.832031 121.09375 108.699219 121.09375 108.851562 M 106.054688 109.058594 C 106.054688 109.101562 106.3125 109.171875 106.628906 109.21875 C 106.945312 109.265625 107.160156 109.234375 107.105469 109.144531 C 107.011719 108.988281 106.054688 108.910156 106.054688 109.058594 M 105.164062 109.816406 L 104.589844 110.449219 L 105.222656 109.875 C 105.574219 109.558594 105.859375 109.273438 105.859375 109.242188 C 105.859375 109.089844 105.699219 109.222656 105.164062 109.816406 M 107.597656 112.289062 C 107.765625 112.394531 107.816406 112.597656 107.730469 112.820312 C 107.625 113.101562 107.648438 113.132812 107.828125 112.953125 C 108.101562 112.679688 107.929688 112.109375 107.574219 112.113281 C 107.386719 112.113281 107.394531 112.160156 107.597656 112.289062 M 113.476562 113.574219 C 114.058594 114.164062 114.582031 114.648438 114.636719 114.648438 C 114.6875 114.648438 114.253906 114.164062 113.671875 113.574219 C 113.089844 112.984375 112.566406 112.5 112.511719 112.5 C 112.460938 112.5 112.894531 112.984375 113.476562 113.574219 M 98.585938 115.957031 C 98.863281 116.011719 98.976562 116.128906 98.890625 116.273438 C 98.8125 116.402344 98.898438 116.386719 99.082031 116.234375 C 99.542969 115.863281 99.503906 115.816406 98.78125 115.847656 C 98.316406 115.867188 98.261719 115.898438 98.585938 115.957031 M 124.046875 117.285156 C 124.222656 117.5 124.410156 117.808594 124.472656 117.96875 C 124.5625 118.21875 124.582031 118.214844 124.59375 117.949219 C 124.601562 117.777344 124.410156 117.472656 124.171875 117.265625 C 123.734375 116.898438 123.734375 116.898438 124.046875 117.285156 M 106.710938 119.824219 C 106.710938 120.789062 106.742188 121.210938 106.785156 120.757812 C 106.824219 120.304688 106.824219 119.511719 106.785156 119 C 106.742188 118.488281 106.710938 118.859375 106.710938 119.824219 M 113.085938 120.605469 C 113.667969 121.195312 114.191406 121.679688 114.246094 121.679688 C 114.296875 121.679688 113.863281 121.195312 113.28125 120.605469 C 112.699219 120.015625 112.175781 119.53125 112.121094 119.53125 C 112.070312 119.53125 112.503906 120.015625 113.085938 120.605469 M 92.292969 120.300781 C 92.21875 120.421875 92.285156 120.457031 92.453125 120.394531 C 92.632812 120.324219 92.773438 120.421875 92.824219 120.640625 C 92.902344 120.957031 92.90625 120.957031 92.890625 120.621094 C 92.867188 120.195312 92.484375 119.992188 92.292969 120.300781 M 84.957031 124.171875 L 82.519531 126.660156 L 85.011719 124.222656 C 86.378906 122.878906 87.5 121.761719 87.5 121.730469 C 87.5 121.589844 87.222656 121.855469 84.957031 124.171875 M 89.539062 122.511719 L 88.964844 123.144531 L 89.597656 122.570312 C 90.191406 122.035156 90.324219 121.875 90.171875 121.875 C 90.140625 121.875 89.855469 122.160156 89.539062 122.511719 M 106.882812 123.632812 C 106.882812 124.007812 106.921875 124.164062 106.96875 123.972656 C 107.019531 123.785156 107.019531 123.480469 106.96875 123.289062 C 106.921875 123.101562 106.882812 123.257812 106.882812 123.632812 M 87.199219 124.65625 L 86.230469 125.683594 L 87.257812 124.714844 C 87.820312 124.179688 88.28125 123.71875 88.28125 123.6875 C 88.28125 123.542969 88.101562 123.707031 87.199219 124.65625 M 90.515625 124.265625 L 89.941406 124.902344 L 90.574219 124.328125 C 91.167969 123.792969 91.300781 123.632812 91.148438 123.632812 C 91.117188 123.632812 90.832031 123.917969 90.515625 124.265625 M 107.078125 125.78125 C 107.078125 126.15625 107.117188 126.3125 107.164062 126.121094 C 107.214844 125.933594 107.214844 125.628906 107.164062 125.441406 C 107.117188 125.25 107.078125 125.40625 107.078125 125.78125 M 87.300781 127.683594 L 85.253906 129.785156 L 87.351562 127.738281 C 88.507812 126.613281 89.453125 125.667969 89.453125 125.636719 C 89.453125 125.496094 89.203125 125.734375 87.300781 127.683594 M 81.832031 129.835938 L 78.808594 132.910156 L 81.886719 129.886719 C 83.578125 128.222656 84.960938 126.835938 84.960938 126.808594 C 84.960938 126.667969 84.644531 126.976562 81.832031 129.835938 M 101.453125 131.101562 L 100.878906 131.738281 L 101.496094 131.183594 C 102.054688 130.679688 102.121094 130.660156 102.207031 130.988281 C 102.28125 131.28125 102.300781 131.269531 102.320312 130.90625 C 102.351562 130.304688 102.128906 130.355469 101.453125 131.101562 M 82.8125 132.324219 C 82.339844 132.808594 81.992188 133.203125 82.046875 133.203125 C 82.101562 133.203125 82.535156 132.808594 83.007812 132.324219 C 83.480469 131.839844 83.828125 131.445312 83.773438 131.445312 C 83.71875 131.445312 83.285156 131.839844 82.8125 132.324219 M 80.945312 134.425781 L 80.371094 135.058594 L 81.007812 134.484375 C 81.597656 133.949219 81.730469 133.789062 81.578125 133.789062 C 81.546875 133.789062 81.261719 134.074219 80.945312 134.425781 M 81.742188 136.425781 C 81.578125 136.695312 81.3125 137.132812 81.148438 137.402344 C 80.984375 137.671875 80.925781 137.890625 81.019531 137.890625 C 81.113281 137.890625 81.425781 137.449219 81.71875 136.914062 C 82.261719 135.914062 82.28125 135.542969 81.742188 136.425781 M 74.328125 137.292969 C 73.695312 137.933594 73.082031 138.4375 72.964844 138.417969 C 72.847656 138.394531 72.773438 138.484375 72.800781 138.617188 C 72.828125 138.75 72.683594 138.945312 72.480469 139.050781 C 72.28125 139.160156 72.058594 139.402344 71.984375 139.59375 C 71.914062 139.785156 72.695312 139.109375 73.722656 138.089844 C 74.746094 137.070312 75.585938 136.214844 75.585938 136.183594 C 75.585938 136.046875 75.394531 136.214844 74.328125 137.292969 M 79.511719 140.367188 C 79.578125 140.761719 79.476562 141.027344 79.300781 140.917969 C 79.183594 140.847656 79.160156 140.9375 79.234375 141.136719 C 79.328125 141.378906 79.292969 141.425781 79.105469 141.308594 C 78.933594 141.203125 78.890625 141.226562 78.984375 141.375 C 79.1875 141.703125 79.253906 141.664062 79.585938 141.027344 C 79.777344 140.652344 79.8125 140.410156 79.683594 140.328125 C 79.574219 140.261719 79.496094 140.277344 79.511719 140.367188 M 116.257812 144.53125 C 116.257812 144.90625 116.296875 145.0625 116.34375 144.871094 C 116.394531 144.683594 116.394531 144.378906 116.34375 144.191406 C 116.296875 144 116.257812 144.15625 116.257812 144.53125 M 110.992188 146.386719 C 110.996094 146.925781 111.03125 147.121094 111.078125 146.824219 C 111.121094 146.527344 111.121094 146.085938 111.074219 145.847656 C 111.027344 145.605469 110.992188 145.847656 110.992188 146.386719 M 126.023438 146.484375 C 126.023438 146.859375 126.0625 147.015625 126.109375 146.824219 C 126.160156 146.636719 126.160156 146.332031 126.109375 146.140625 C 126.0625 145.953125 126.023438 146.109375 126.023438 146.484375 M 113.914062 146.875 C 113.914062 147.25 113.953125 147.40625 114.003906 147.21875 C 114.050781 147.027344 114.050781 146.722656 114.003906 146.53125 C 113.953125 146.34375 113.914062 146.5 113.914062 146.875 M 116.453125 146.875 C 116.453125 147.25 116.492188 147.40625 116.539062 147.21875 C 116.589844 147.027344 116.589844 146.722656 116.539062 146.53125 C 116.492188 146.34375 116.453125 146.5 116.453125 146.875 M 90.496094 149.609375 C 90.496094 150.414062 90.53125 150.746094 90.570312 150.34375 C 90.613281 149.9375 90.613281 149.28125 90.570312 148.878906 C 90.53125 148.472656 90.496094 148.804688 90.496094 149.609375 M 114.113281 149.511719 C 114.113281 149.941406 114.152344 150.09375 114.199219 149.851562 C 114.246094 149.609375 114.246094 149.257812 114.195312 149.070312 C 114.148438 148.882812 114.109375 149.082031 114.113281 149.511719 M 116.65625 149.902344 C 116.660156 150.441406 116.695312 150.636719 116.742188 150.339844 C 116.785156 150.042969 116.785156 149.601562 116.738281 149.363281 C 116.691406 149.121094 116.65625 149.363281 116.65625 149.902344 M 110.808594 151.269531 C 110.808594 152.128906 110.84375 152.457031 110.886719 151.996094 C 110.925781 151.539062 110.925781 150.835938 110.882812 150.433594 C 110.84375 150.035156 110.808594 150.410156 110.808594 151.269531 M 114.308594 152.636719 C 114.308594 153.066406 114.347656 153.21875 114.394531 152.976562 C 114.441406 152.734375 114.441406 152.382812 114.390625 152.195312 C 114.34375 152.007812 114.304688 152.207031 114.308594 152.636719 M 116.859375 153.710938 C 116.859375 154.410156 116.894531 154.695312 116.9375 154.34375 C 116.980469 153.996094 116.980469 153.425781 116.9375 153.074219 C 116.894531 152.726562 116.859375 153.011719 116.859375 153.710938 M 114.503906 155.371094 C 114.503906 155.800781 114.542969 155.953125 114.589844 155.710938 C 114.636719 155.46875 114.636719 155.117188 114.585938 154.929688 C 114.539062 154.742188 114.5 154.941406 114.503906 155.371094 M 93.996094 156.738281 C 93.996094 157.167969 94.035156 157.320312 94.082031 157.078125 C 94.128906 156.835938 94.128906 156.484375 94.078125 156.296875 C 94.03125 156.109375 93.992188 156.308594 93.996094 156.738281 M 110.59375 157.617188 C 110.59375 157.992188 110.632812 158.148438 110.679688 157.960938 C 110.730469 157.769531 110.730469 157.464844 110.679688 157.277344 C 110.632812 157.085938 110.59375 157.242188 110.59375 157.617188 M 116.84375 163.085938 C 116.84375 163.460938 116.882812 163.617188 116.929688 163.425781 C 116.980469 163.238281 116.980469 162.933594 116.929688 162.742188 C 116.882812 162.554688 116.84375 162.710938 116.84375 163.085938 "/>
<path style=" stroke:none;fill-rule:evenodd;fill:rgb(78.431373%,52.941176%,50.196078%);fill-opacity:1;" d="M 99.023438 33.984375 C 99.023438 34.09375 99.578125 34.179688 100.292969 34.179688 C 101.007812 34.179688 101.5625 34.09375 101.5625 33.984375 C 101.5625 33.875 101.007812 33.789062 100.292969 33.789062 C 99.578125 33.789062 99.023438 33.875 99.023438 33.984375 M 94.726562 34.429688 C 94.351562 34.535156 94.144531 34.65625 94.269531 34.703125 C 94.578125 34.816406 95.835938 34.476562 95.597656 34.34375 C 95.496094 34.285156 95.101562 34.324219 94.726562 34.429688 M 102.75 34.25 C 102.957031 34.425781 104.296875 34.527344 104.296875 34.363281 C 104.296875 34.261719 103.929688 34.179688 103.484375 34.179688 C 103.035156 34.179688 102.707031 34.210938 102.75 34.25 M 106.523438 34.980469 C 107.160156 35.1875 107.71875 35.316406 107.765625 35.269531 C 107.863281 35.171875 105.898438 34.558594 105.578125 34.589844 C 105.464844 34.601562 105.890625 34.777344 106.523438 34.980469 M 92.773438 34.992188 C 92.773438 35.191406 93.128906 35.183594 93.652344 34.96875 C 93.96875 34.835938 93.921875 34.808594 93.40625 34.816406 C 93.058594 34.820312 92.773438 34.898438 92.773438 34.992188 M 91.503906 35.382812 C 90.597656 35.691406 89.609375 36.15625 89.691406 36.242188 C 89.734375 36.28125 90.421875 36.058594 91.222656 35.742188 C 92.589844 35.203125 92.785156 34.953125 91.503906 35.382812 M 108.28125 35.515625 C 108.359375 35.640625 108.550781 35.742188 108.710938 35.742188 C 109.035156 35.742188 111.667969 37 112.765625 37.679688 C 113.15625 37.921875 113.476562 38.070312 113.476562 38.011719 C 113.476562 37.800781 111.355469 36.550781 110.128906 36.039062 C 108.445312 35.332031 108.109375 35.238281 108.28125 35.515625 M 88.367188 36.804688 C 88 37.078125 88.003906 37.085938 88.429688 36.976562 C 88.675781 36.917969 88.921875 36.789062 88.980469 36.695312 C 89.144531 36.429688 88.789062 36.492188 88.367188 36.804688 M 86.816406 37.699219 C 85.480469 38.5 85.144531 38.722656 84.769531 39.0625 C 84.589844 39.222656 84.140625 39.59375 83.765625 39.882812 C 82.976562 40.496094 80.859375 42.582031 80.855469 42.753906 C 80.855469 42.820312 80.59375 43.179688 80.273438 43.554688 C 79.421875 44.554688 79.394531 44.589844 79.011719 45.175781 C 78.203125 46.40625 78.925781 45.78125 79.945312 44.371094 C 81.347656 42.417969 84.246094 39.621094 86.132812 38.390625 C 87.59375 37.4375 88.046875 37.109375 87.882812 37.109375 C 87.832031 37.113281 87.351562 37.375 86.816406 37.699219 M 113.671875 38.171875 C 113.671875 38.214844 113.933594 38.441406 114.257812 38.671875 C 114.707031 38.992188 114.8125 39.015625 114.722656 38.777344 C 114.574219 38.390625 113.671875 37.871094 113.671875 38.171875 M 117.46875 41.335938 C 117.859375 41.726562 118.226562 41.996094 118.285156 41.933594 C 118.410156 41.8125 117.183594 40.640625 116.925781 40.628906 C 116.832031 40.628906 117.078125 40.945312 117.46875 41.335938 M 120.09375 44.238281 C 120.375 44.816406 120.886719 45.441406 120.890625 45.214844 C 120.894531 45.109375 120.671875 44.757812 120.398438 44.433594 C 120.125 44.113281 119.988281 44.023438 120.09375 44.238281 M 121.378906 46.238281 C 121.550781 46.589844 121.730469 46.875 121.78125 46.875 C 121.976562 46.875 121.851562 46.5625 121.46875 46.09375 L 121.070312 45.605469 L 121.378906 46.238281 M 121.875 47.226562 C 121.875 47.316406 122.003906 47.558594 122.160156 47.765625 C 122.453125 48.152344 122.554688 47.933594 122.34375 47.378906 C 122.21875 47.058594 121.875 46.949219 121.875 47.226562 M 77.210938 48.480469 C 76.917969 48.867188 76.167969 50.976562 76.324219 50.972656 C 76.476562 50.96875 77.570312 48.402344 77.464844 48.296875 C 77.429688 48.261719 77.316406 48.34375 77.210938 48.480469 M 100.148438 49.746094 C 100.390625 49.792969 100.742188 49.792969 100.929688 49.742188 C 101.117188 49.695312 100.917969 49.65625 100.488281 49.660156 C 100.058594 49.660156 99.90625 49.699219 100.148438 49.746094 M 97.359375 50.007812 C 97.277344 50.140625 97.421875 50.164062 97.785156 50.078125 C 98.535156 49.898438 98.605469 49.804688 97.992188 49.804688 C 97.714844 49.804688 97.425781 49.894531 97.359375 50.007812 M 104.394531 50.78125 C 104.527344 50.992188 105.664062 51.628906 105.664062 51.488281 C 105.664062 51.445312 105.351562 51.222656 104.96875 50.996094 C 104.585938 50.769531 104.328125 50.675781 104.394531 50.78125 M 123.703125 51.464844 C 123.761719 51.679688 123.867188 52.097656 123.9375 52.390625 C 124.007812 52.6875 124.132812 52.929688 124.214844 52.929688 C 124.433594 52.929688 124.203125 51.910156 123.878906 51.464844 L 123.597656 51.074219 L 123.703125 51.464844 M 106.25 52.246094 C 106.5 52.511719 106.753906 52.6875 106.804688 52.632812 C 106.917969 52.523438 106.152344 51.757812 105.929688 51.757812 C 105.855469 51.757812 105.996094 51.976562 106.25 52.246094 M 75.585938 53.316406 C 75.464844 53.761719 75.402344 54.234375 75.449219 54.359375 C 75.492188 54.488281 75.621094 54.152344 75.738281 53.617188 C 75.996094 52.417969 75.886719 52.199219 75.585938 53.316406 M 107.386719 53.441406 C 107.820312 54.230469 108.253906 54.660156 107.921875 53.96875 C 107.753906 53.625 107.523438 53.285156 107.402344 53.210938 C 107.25 53.117188 107.246094 53.179688 107.386719 53.441406 M 91.503906 54.882812 C 91.328125 55.226562 91.226562 55.550781 91.28125 55.601562 C 91.332031 55.65625 91.523438 55.421875 91.699219 55.078125 C 91.875 54.734375 91.976562 54.410156 91.921875 54.359375 C 91.871094 54.304688 91.679688 54.539062 91.503906 54.882812 M 124.644531 55.90625 C 124.734375 56.578125 124.84375 57.21875 124.890625 57.324219 C 125.015625 57.636719 125.007812 56.222656 124.875 55.421875 C 124.671875 54.183594 124.46875 54.609375 124.644531 55.90625 M 74.902344 57.605469 C 74.824219 58.179688 74.855469 58.710938 74.976562 58.921875 C 75.136719 59.195312 75.183594 58.980469 75.191406 57.960938 C 75.195312 56.402344 75.089844 56.265625 74.902344 57.605469 M 109.242188 58.789062 C 109.242188 59.488281 109.277344 59.773438 109.320312 59.425781 C 109.363281 59.074219 109.363281 58.503906 109.320312 58.15625 C 109.277344 57.804688 109.242188 58.089844 109.242188 58.789062 M 124.828125 59.503906 C 124.816406 60.597656 124.746094 61.644531 124.675781 61.832031 C 124.59375 62.042969 124.621094 62.125 124.742188 62.050781 C 125.015625 61.882812 125.203125 59.257812 125.007812 58.300781 C 124.882812 57.683594 124.84375 57.9375 124.828125 59.503906 M 90.683594 59.082031 C 90.6875 59.726562 90.722656 59.964844 90.765625 59.617188 C 90.808594 59.265625 90.808594 58.738281 90.765625 58.445312 C 90.71875 58.152344 90.683594 58.4375 90.683594 59.082031 M 75.023438 60.585938 C 75.003906 61.722656 75.328125 64.007812 75.484375 63.832031 C 75.515625 63.796875 75.429688 62.757812 75.296875 61.523438 C 75.070312 59.464844 75.046875 59.386719 75.023438 60.585938 M 108.914062 60.789062 C 108.851562 61.027344 108.886719 61.308594 108.992188 61.414062 C 109.113281 61.535156 109.179688 61.378906 109.179688 60.976562 C 109.179688 60.246094 109.078125 60.171875 108.914062 60.789062 M 91.601562 63.1875 C 91.601562 63.777344 93.785156 66.160156 94.949219 66.839844 L 95.605469 67.226562 L 95.019531 66.765625 C 93.777344 65.796875 92.722656 64.710938 92.253906 63.914062 C 91.796875 63.152344 91.601562 62.929688 91.601562 63.1875 M 124.328125 63.976562 C 124.253906 64.367188 124.234375 64.726562 124.28125 64.773438 C 124.328125 64.824219 124.425781 64.542969 124.5 64.148438 C 124.574219 63.757812 124.59375 63.398438 124.546875 63.351562 C 124.5 63.300781 124.402344 63.582031 124.328125 63.976562 M 75.710938 65.039062 C 75.773438 65.523438 75.910156 66.078125 76.015625 66.277344 C 76.371094 66.953125 76.351562 66.484375 75.972656 65.324219 C 75.605469 64.191406 75.597656 64.183594 75.710938 65.039062 M 123.292969 67.382812 C 122.960938 68.351562 122.761719 69.097656 122.851562 69.042969 C 122.941406 68.988281 123.164062 68.523438 123.347656 68.015625 C 123.527344 67.507812 123.726562 66.957031 123.785156 66.796875 C 123.910156 66.464844 124.027344 65.625 123.949219 65.625 C 123.921875 65.625 123.625 66.417969 123.292969 67.382812 M 104.050781 67.199219 C 103.648438 67.414062 103.320312 67.632812 103.320312 67.683594 C 103.320312 67.738281 103.671875 67.601562 104.101562 67.382812 C 104.53125 67.164062 104.882812 66.941406 104.882812 66.890625 C 104.882812 66.761719 104.882812 66.761719 104.050781 67.199219 M 101.804688 67.910156 C 101.566406 67.957031 101.367188 68.070312 101.367188 68.160156 C 101.367188 68.3125 102.714844 68.039062 102.914062 67.851562 C 103.007812 67.757812 102.429688 67.792969 101.804688 67.910156 M 98.4375 68.164062 C 98.4375 68.273438 98.8125 68.351562 99.265625 68.339844 C 99.972656 68.324219 100.023438 68.296875 99.609375 68.164062 C 98.90625 67.9375 98.4375 67.9375 98.4375 68.164062 M 76.953125 68.710938 C 76.953125 69.085938 78.890625 72.542969 79.027344 72.40625 C 79.066406 72.363281 78.707031 71.636719 78.222656 70.789062 C 77.738281 69.941406 77.34375 69.140625 77.34375 69.011719 C 77.34375 68.878906 77.257812 68.71875 77.148438 68.652344 C 77.039062 68.585938 76.953125 68.613281 76.953125 68.710938 M 122.046875 70.363281 C 121.917969 70.601562 121.679688 71.019531 121.515625 71.289062 L 121.21875 71.777344 L 121.648438 71.34375 C 122.046875 70.941406 122.558594 69.921875 122.367188 69.921875 C 122.316406 69.921875 122.175781 70.121094 122.046875 70.363281 M 120.222656 73.453125 C 119.699219 74.359375 119.101562 75.40625 118.894531 75.78125 L 118.515625 76.464844 L 118.921875 75.976562 C 119.148438 75.707031 119.382812 75.335938 119.445312 75.148438 C 119.507812 74.957031 119.628906 74.804688 119.714844 74.804688 C 119.804688 74.804688 119.988281 74.519531 120.128906 74.171875 C 120.269531 73.820312 120.597656 73.253906 120.855469 72.90625 C 121.113281 72.5625 121.289062 72.171875 121.246094 72.042969 C 121.203125 71.914062 120.742188 72.550781 120.222656 73.453125 M 80.441406 74.941406 C 80.527344 75.132812 80.722656 75.578125 80.871094 75.925781 C 81.019531 76.277344 81.210938 76.5625 81.292969 76.5625 C 81.375 76.5625 81.445312 76.671875 81.445312 76.804688 C 81.445312 76.941406 81.675781 77.316406 81.953125 77.636719 C 82.40625 78.164062 82.394531 78.109375 81.820312 77.050781 C 81.46875 76.40625 81.058594 75.640625 80.910156 75.34375 C 80.605469 74.746094 80.183594 74.382812 80.441406 74.941406 M 117.675781 77.929688 C 117.507812 78.253906 117.417969 78.515625 117.46875 78.515625 C 117.523438 78.515625 117.703125 78.253906 117.871094 77.929688 C 118.039062 77.609375 118.128906 77.34375 118.078125 77.34375 C 118.023438 77.34375 117.84375 77.609375 117.675781 77.929688 M 82.421875 78.492188 C 82.421875 78.589844 82.601562 78.875 82.820312 79.128906 L 83.222656 79.589844 L 82.914062 78.953125 C 82.613281 78.332031 82.421875 78.152344 82.421875 78.492188 M 117.03125 78.945312 C 116.902344 79.074219 116.796875 79.25 116.796875 79.332031 C 116.796875 79.417969 116.445312 80.058594 116.015625 80.761719 C 115.585938 81.464844 115.234375 82.101562 115.234375 82.179688 C 115.238281 82.410156 116.195312 81.175781 116.203125 80.933594 C 116.207031 80.816406 116.386719 80.496094 116.597656 80.226562 C 116.945312 79.785156 117.457031 78.710938 117.320312 78.710938 C 117.289062 78.710938 117.160156 78.816406 117.03125 78.945312 M 84.179688 81.324219 C 84.179688 81.398438 84.371094 81.832031 84.609375 82.28125 C 84.847656 82.734375 85.023438 83.171875 85 83.253906 C 84.976562 83.332031 85.035156 83.398438 85.125 83.398438 C 85.21875 83.398438 85.449219 83.746094 85.640625 84.167969 C 85.832031 84.589844 86.113281 84.988281 86.269531 85.046875 C 86.480469 85.128906 86.453125 84.988281 86.164062 84.523438 C 85.949219 84.171875 85.453125 83.316406 85.058594 82.617188 C 84.304688 81.28125 84.179688 81.097656 84.179688 81.324219 M 113.300781 85.460938 C 113.074219 85.84375 112.890625 86.203125 112.890625 86.261719 C 112.890625 86.316406 112.730469 86.597656 112.53125 86.882812 C 111.816406 87.921875 110.914062 89.648438 111.085938 89.648438 C 111.183594 89.648438 111.371094 89.414062 111.503906 89.125 C 111.632812 88.839844 112.109375 87.980469 112.558594 87.222656 C 113.375 85.84375 113.910156 84.765625 113.78125 84.765625 C 113.742188 84.765625 113.527344 85.078125 113.300781 85.460938 M 86.765625 86.078125 C 86.890625 86.425781 87.109375 86.753906 87.253906 86.808594 C 87.539062 86.914062 87.375 86.535156 86.835938 85.839844 C 86.554688 85.476562 86.550781 85.492188 86.765625 86.078125 M 88.578125 89.152344 C 88.953125 89.738281 89.257812 90.257812 89.257812 90.308594 C 89.257812 90.46875 90.664062 92.773438 90.765625 92.773438 C 90.964844 92.773438 88.246094 88.09375 88.039062 88.089844 C 87.960938 88.085938 88.203125 88.566406 88.578125 89.152344 M 110.230469 90.867188 C 109.558594 92.011719 109.515625 92.105469 109.855469 91.699219 C 110.253906 91.226562 110.59375 90.625 110.46875 90.625 C 110.417969 90.625 110.308594 90.734375 110.230469 90.867188 M 108.972656 93 C 108.734375 93.464844 108.367188 94.09375 108.15625 94.394531 C 107.859375 94.820312 107.78125 95.46875 108.074219 95.101562 C 108.394531 94.695312 109.582031 92.328125 109.503906 92.25 C 109.449219 92.195312 109.210938 92.53125 108.972656 93 M 91.1875 93.652344 C 91.292969 93.867188 91.519531 94.21875 91.695312 94.433594 L 92.011719 94.824219 L 91.820312 94.433594 C 91.714844 94.21875 91.488281 93.867188 91.3125 93.652344 L 90.992188 93.261719 L 91.1875 93.652344 M 91.992188 95.113281 C 91.992188 95.257812 92.207031 95.65625 92.472656 96.003906 C 92.734375 96.347656 92.898438 96.6875 92.828125 96.753906 C 92.761719 96.820312 92.8125 96.875 92.9375 96.875 C 93.0625 96.875 93.164062 96.988281 93.164062 97.125 C 93.164062 97.339844 94.285156 99.21875 95.074219 100.328125 C 95.46875 100.882812 93.765625 97.703125 92.910156 96.289062 C 92.007812 94.800781 91.992188 94.777344 91.992188 95.113281 M 107.046875 96.359375 C 106.589844 97.097656 106.550781 97.265625 106.835938 97.265625 C 106.945312 97.265625 107.011719 97.199219 106.992188 97.117188 C 106.96875 97.039062 107.101562 96.6875 107.289062 96.339844 C 107.734375 95.503906 107.566406 95.519531 107.046875 96.359375 M 106.324219 97.703125 C 106.246094 97.839844 106.042969 98.164062 105.875 98.429688 C 105.683594 98.730469 105.660156 98.851562 105.8125 98.757812 C 106.066406 98.601562 106.722656 97.460938 106.558594 97.460938 C 106.507812 97.460938 106.402344 97.570312 106.324219 97.703125 M 104.925781 100.050781 C 104.605469 100.613281 104.148438 101.402344 103.910156 101.804688 C 103.671875 102.210938 103.558594 102.539062 103.660156 102.539062 C 103.761719 102.539062 104.011719 102.210938 104.214844 101.804688 C 104.421875 101.402344 104.738281 100.84375 104.925781 100.5625 C 105.28125 100.023438 105.707031 99.023438 105.578125 99.023438 C 105.539062 99.023438 105.246094 99.484375 104.925781 100.050781 M 95.449219 101.164062 C 95.503906 101.378906 95.6875 101.664062 95.851562 101.800781 C 96.109375 102.011719 96.101562 101.953125 95.824219 101.414062 C 95.453125 100.699219 95.300781 100.597656 95.449219 101.164062 M 96.226562 102.460938 C 96.410156 102.945312 97.582031 104.914062 97.953125 105.371094 C 98.128906 105.585938 97.988281 105.234375 97.636719 104.589844 C 97.289062 103.945312 96.878906 103.179688 96.730469 102.882812 C 96.421875 102.28125 96.03125 101.949219 96.226562 102.460938 M 101.5 106.054688 C 100.128906 108.464844 99.964844 108.640625 99.625 108.054688 C 99.515625 107.867188 99.421875 107.808594 99.421875 107.921875 C 99.410156 108.289062 99.894531 108.785156 100.121094 108.640625 C 100.242188 108.558594 100.886719 107.53125 101.554688 106.347656 C 102.222656 105.164062 102.859375 104.089844 102.972656 103.953125 C 103.082031 103.820312 103.097656 103.710938 103.003906 103.710938 C 102.910156 103.714844 102.234375 104.769531 101.5 106.054688 M 98.445312 106.347656 C 98.441406 106.636719 98.789062 107.132812 98.914062 107.011719 C 98.972656 106.953125 98.890625 106.734375 98.734375 106.527344 C 98.578125 106.320312 98.449219 106.238281 98.445312 106.347656 "/>
</g>
</svg>
