<svg id="svg" version="1.1" xmlns="http://www.w3.org/2000/svg" xmlns:xlink="http://www.w3.org/1999/xlink" width="400" height="400" viewBox="0, 0, 400,400"><g id="svgg"><path id="path0" d="M188.856 69.513 C 155.343 78.298,140.255 113.952,157.522 143.555 C 159.223 146.470,160.971 149.412,161.353 150.000 C 161.562 150.322,163.283 153.311,165.177 156.641 C 168.152 161.872,172.055 168.725,173.520 171.289 C 173.766 171.719,174.843 173.564,175.915 175.391 C 176.986 177.217,178.945 180.645,180.269 183.008 C 181.593 185.371,183.824 189.238,185.226 191.602 C 186.628 193.965,188.900 197.889,190.274 200.321 C 191.649 202.753,192.949 205.038,193.164 205.399 C 193.379 205.760,194.150 207.109,194.877 208.398 C 198.449 214.732,199.711 216.797,200.008 216.797 C 200.186 216.797,201.956 213.940,203.941 210.449 C 205.926 206.958,208.789 201.992,210.303 199.414 C 211.817 196.836,213.345 194.199,213.698 193.555 C 215.277 190.671,216.438 188.626,218.354 185.352 C 219.486 183.418,221.412 180.078,222.635 177.930 C 225.871 172.247,226.450 171.243,228.561 167.664 C 229.610 165.885,230.469 164.350,230.469 164.253 C 230.469 164.107,232.587 160.455,233.978 158.203 C 235.043 156.478,237.017 153.028,238.174 150.868 C 238.896 149.520,240.678 146.444,242.134 144.032 C 245.367 138.677,247.415 133.545,248.872 127.148 C 249.591 123.990,249.705 112.187,249.045 109.180 C 245.357 92.367,236.051 80.332,221.057 72.982 C 219.376 72.158,217.816 71.484,217.589 71.484 C 217.362 71.484,216.872 71.319,216.499 71.117 C 211.490 68.405,196.418 67.531,188.856 69.513 M206.132 100.154 C 206.734 100.446,208.081 101.102,209.125 101.612 C 217.314 105.611,221.124 117.416,216.930 125.798 C 210.964 137.725,195.886 140.352,186.696 131.068 C 184.889 129.242,184.201 128.219,182.614 125.000 C 178.502 116.656,183.553 104.531,192.782 100.594 C 196.096 99.180,203.615 98.932,206.132 100.154 " stroke="none" fill="#db4839" fill-rule="evenodd"></path><path id="path1" d="M194.727 67.969 C 194.590 68.190,194.918 68.359,195.485 68.359 C 196.035 68.359,196.484 68.184,196.484 67.969 C 196.484 67.754,196.143 67.578,195.726 67.578 C 195.309 67.578,194.859 67.754,194.727 67.969 M186.889 104.785 L 185.742 106.055 187.107 104.883 C 187.858 104.238,188.547 103.667,188.637 103.613 C 188.728 103.560,188.630 103.516,188.419 103.516 C 188.209 103.516,187.521 104.087,186.889 104.785 M216.839 110.156 C 216.827 110.264,217.169 111.582,217.598 113.086 C 218.174 115.105,218.337 115.412,218.219 114.258 C 218.089 112.978,216.913 109.483,216.839 110.156 M249.969 116.309 C 250.156 117.657,250.183 117.684,250.312 116.652 C 250.389 116.035,250.297 115.376,250.109 115.187 C 249.913 114.991,249.853 115.469,249.969 116.309 M149.609 119.727 C 149.609 120.980,149.687 121.927,149.782 121.832 C 150.078 121.537,150.160 117.998,149.877 117.716 C 149.730 117.568,149.609 118.473,149.609 119.727 M181.696 121.484 C 181.696 121.807,181.847 122.422,182.031 122.852 C 182.243 123.344,182.367 123.416,182.367 123.047 C 182.367 122.725,182.216 122.109,182.031 121.680 C 181.820 121.187,181.696 121.115,181.696 121.484 M217.234 123.561 C 216.595 125.169,216.705 125.772,217.396 124.446 C 217.723 123.820,217.918 123.116,217.831 122.884 C 217.743 122.651,217.475 122.956,217.234 123.561 M215.334 127.832 C 214.781 128.530,214.004 130.078,214.205 130.078 C 214.299 130.078,214.739 129.463,215.183 128.711 C 215.989 127.345,216.064 126.911,215.334 127.832 M159.961 148.828 C 160.294 149.473,160.655 150.000,160.762 150.000 C 160.870 150.000,160.685 149.473,160.352 148.828 C 160.018 148.184,159.658 147.656,159.550 147.656 C 159.443 147.656,159.628 148.184,159.961 148.828 M236.026 210.152 C 235.026 210.576,234.396 211.911,234.682 213.004 C 234.929 213.948,236.062 214.356,240.820 215.216 C 242.969 215.605,245.419 216.212,246.265 216.565 C 248.212 217.380,248.936 216.815,248.988 214.439 L 249.023 212.820 244.840 211.504 C 240.142 210.025,237.340 209.596,236.026 210.152 M219.336 216.597 C 222.524 219.386,239.422 226.667,243.941 227.198 L 246.121 227.454 245.878 225.739 C 244.751 217.774,243.287 216.825,231.445 216.380 C 226.934 216.211,222.100 215.959,220.703 215.822 L 218.164 215.572 219.336 216.597 M210.456 219.858 C 207.699 222.910,208.284 225.631,211.849 226.334 C 215.243 227.003,217.200 225.043,213.965 224.215 C 211.417 223.562,211.328 223.512,211.328 222.728 C 211.328 222.232,211.844 221.791,212.919 221.369 C 214.314 220.821,214.494 220.610,214.383 219.649 C 214.172 217.808,212.214 217.912,210.456 219.858 M224.532 224.070 C 225.276 225.452,237.092 236.137,241.054 239.010 C 243.088 240.485,249.498 237.466,248.707 235.405 C 247.948 233.426,230.535 224.535,225.610 223.612 C 224.251 223.357,224.167 223.392,224.532 224.070 M197.019 239.160 C 179.706 262.443,172.543 277.895,169.139 299.305 C 168.060 306.091,168.115 306.192,170.880 302.488 C 177.607 293.474,180.540 290.415,181.047 291.881 C 181.143 292.157,181.271 294.870,181.333 297.909 C 181.485 305.377,182.357 306.506,185.797 303.687 C 186.731 302.921,187.672 302.404,187.888 302.538 C 188.476 302.901,188.356 312.683,187.692 318.555 C 186.934 325.254,186.936 327.692,187.700 327.986 C 191.470 329.432,199.538 299.617,203.504 269.583 C 204.735 260.260,204.848 260.522,201.261 264.369 C 194.655 271.452,195.192 265.879,202.627 250.195 C 207.032 240.903,208.425 237.592,208.076 237.242 C 207.571 236.738,206.353 238.342,203.099 243.794 C 199.277 250.202,197.921 251.878,197.105 251.201 C 196.371 250.591,197.016 247.863,199.421 241.406 C 201.586 235.594,203.113 231.250,202.990 231.250 C 202.941 231.250,200.254 234.810,197.019 239.160 M194.727 232.311 C 184.329 234.821,175.282 241.746,161.156 258.008 C 144.287 277.427,143.375 279.702,158.422 264.831 C 180.200 243.308,185.938 238.391,185.938 241.250 C 185.938 243.301,182.940 247.042,173.489 256.789 C 158.632 272.111,156.084 275.453,149.462 288.303 C 143.987 298.926,142.324 303.516,143.947 303.516 C 145.234 303.516,150.967 294.797,158.973 280.664 C 164.293 271.274,165.657 269.504,161.531 277.344 C 154.942 289.866,151.042 298.795,151.247 300.890 L 151.371 302.148 152.836 300.653 C 155.799 297.630,162.043 288.164,176.068 265.430 C 189.146 244.232,194.331 236.245,196.762 233.555 L 198.138 232.031 196.823 232.077 C 196.100 232.101,195.156 232.207,194.727 232.311 M213.703 240.234 C 213.660 245.982,214.770 257.231,218.943 293.359 C 221.664 316.913,221.374 315.196,221.443 308.203 C 221.611 291.206,222.929 279.102,224.611 279.102 C 226.562 279.102,227.440 284.362,228.719 303.711 C 229.754 319.375,230.765 326.904,232.195 329.613 L 232.750 330.664 233.260 329.492 C 233.643 328.612,233.765 325.451,233.752 316.797 C 233.701 284.277,229.469 259.092,221.227 242.259 C 218.768 237.236,218.313 236.860,219.727 241.016 C 221.288 245.607,221.146 248.047,219.318 248.047 C 217.993 248.047,216.703 245.913,215.421 241.602 C 214.846 239.668,214.232 237.646,214.055 237.109 C 213.842 236.463,213.723 237.521,213.703 240.234 M223.195 239.551 C 223.496 240.249,226.202 246.182,229.207 252.734 C 232.213 259.287,235.675 266.846,236.902 269.531 C 241.671 279.970,248.127 292.598,249.289 293.760 C 257.219 301.690,245.859 266.114,236.380 253.335 C 231.672 246.988,223.858 238.281,222.870 238.281 C 222.747 238.281,222.893 238.853,223.195 239.551 " stroke="none" fill="#5b545b" fill-rule="evenodd"></path><path id="path2" d="M198.535 99.889 C 199.126 99.979,200.093 99.979,200.684 99.889 C 201.274 99.800,200.791 99.726,199.609 99.726 C 198.428 99.726,197.944 99.800,198.535 99.889 M239.648 204.059 C 226.877 206.782,209.463 216.041,206.567 221.647 C 205.778 223.176,205.691 226.909,206.407 228.554 C 206.640 229.088,206.206 229.215,203.416 229.429 C 199.456 229.734,195.205 230.784,191.220 232.443 C 187.457 234.010,187.602 234.177,191.697 232.991 C 193.466 232.479,195.838 231.943,196.969 231.800 L 199.023 231.542 197.709 232.854 C 195.130 235.427,189.868 243.388,177.794 262.984 C 163.063 286.892,156.640 296.718,153.539 300.091 C 148.861 305.179,150.467 298.923,157.425 284.956 C 159.296 281.199,160.783 278.125,160.728 278.125 C 160.674 278.125,159.612 279.927,158.370 282.129 C 150.095 296.791,144.485 304.797,143.309 303.622 C 142.551 302.864,144.341 298.040,148.257 290.285 C 155.792 275.365,157.464 273.151,174.991 254.883 C 183.799 245.703,187.433 240.625,185.195 240.625 C 183.764 240.625,172.559 250.960,155.297 268.201 C 148.864 274.626,143.752 279.619,143.938 279.297 C 148.083 272.082,167.714 249.697,176.563 242.095 C 181.656 237.719,181.991 237.371,179.297 239.264 C 145.891 262.732,109.375 330.682,109.375 369.378 C 109.375 386.290,113.006 389.736,133.789 392.551 C 158.180 395.854,213.001 395.487,244.727 391.808 C 246.445 391.609,249.609 391.248,251.758 391.006 C 270.388 388.907,283.982 385.774,288.106 382.628 C 293.293 378.672,290.693 357.020,281.814 330.218 C 264.482 277.897,237.575 238.353,214.317 231.022 C 213.103 230.639,212.109 230.217,212.109 230.084 C 212.109 229.825,216.575 228.351,218.597 227.942 C 221.831 227.288,226.855 230.735,236.064 239.927 C 241.772 245.624,243.640 247.266,244.416 247.266 C 249.018 247.266,252.395 237.804,250.708 229.637 C 250.059 226.493,250.692 223.512,253.095 218.404 C 255.310 213.695,256.093 211.124,255.733 209.743 C 254.501 205.010,247.234 202.442,239.648 204.059 M244.988 211.309 C 249.567 212.733,249.834 213.004,249.009 215.404 C 248.323 217.397,248.270 217.421,246.183 216.677 C 245.167 216.314,242.427 215.676,240.094 215.257 C 235.603 214.452,234.375 213.805,234.375 212.244 C 234.375 209.389,237.830 209.085,244.988 211.309 M229.688 215.998 C 239.408 216.361,241.400 216.723,243.304 218.470 C 245.498 220.485,247.149 227.734,245.413 227.734 C 241.657 227.734,223.209 220.027,219.505 216.910 C 218.252 215.856,218.346 215.022,219.673 215.410 C 220.132 215.544,224.639 215.809,229.688 215.998 M214.407 218.833 C 214.916 220.209,214.497 220.958,212.857 221.602 C 210.510 222.524,211.014 223.441,214.199 224.038 C 217.547 224.666,216.044 226.719,212.417 226.472 C 209.691 226.286,208.594 225.448,208.594 223.553 C 208.594 220.006,213.398 216.106,214.407 218.833 M228.981 224.455 C 235.167 226.660,248.513 233.881,249.066 235.321 C 249.665 236.883,245.764 239.453,242.794 239.453 C 241.315 239.453,240.733 239.046,233.983 233.286 C 222.767 223.715,221.721 221.867,228.981 224.455 M200.842 238.124 C 197.012 248.394,196.287 251.172,197.441 251.172 C 198.202 251.172,199.420 249.512,202.746 243.941 C 205.846 238.749,207.276 236.719,207.832 236.719 C 208.833 236.719,207.828 239.543,203.754 248.183 C 199.039 258.182,197.522 261.992,197.123 264.844 C 196.603 268.553,197.824 268.316,201.378 264.021 C 204.361 260.415,204.795 260.245,204.500 262.793 C 200.670 295.903,192.487 328.125,187.908 328.125 C 186.809 328.125,186.702 326.533,187.384 320.313 C 188.030 314.422,188.297 303.012,187.801 302.515 C 187.644 302.358,186.725 302.958,185.759 303.849 C 183.789 305.665,183.699 305.694,182.564 304.899 C 181.204 303.947,180.737 301.353,181.053 296.512 C 181.499 289.684,180.683 289.982,173.647 299.219 C 171.438 302.119,169.256 304.827,168.799 305.237 L 167.967 305.982 168.208 304.065 C 171.217 280.143,178.827 263.051,197.609 238.030 C 203.775 229.816,203.939 229.821,200.842 238.124 M214.852 239.160 C 215.305 240.718,215.775 242.344,215.896 242.773 C 216.379 244.483,218.013 247.262,218.774 247.669 C 220.975 248.847,221.218 245.935,219.362 240.625 C 218.094 236.995,218.100 236.546,219.390 238.445 C 223.147 243.974,227.956 258.213,230.425 271.118 C 233.503 287.211,235.246 330.469,232.815 330.469 C 231.043 330.469,229.856 322.973,228.517 303.320 C 227.281 285.184,226.299 279.065,224.674 279.378 C 223.133 279.674,222.441 285.401,221.805 303.125 L 221.322 316.602 220.466 308.594 C 219.994 304.189,218.716 292.852,217.624 283.398 C 212.961 243.037,212.132 229.799,214.852 239.160 M226.730 241.517 C 237.793 252.857,243.197 262.277,249.403 281.043 C 253.164 292.416,253.028 297.946,249.088 293.812 C 247.227 291.860,240.766 278.575,227.202 248.817 C 221.473 236.247,221.464 236.119,226.730 241.517 " stroke="none" fill="#040404" fill-rule="evenodd"></path><path id="path3" d="M205.181 68.249 C 205.775 68.339,206.654 68.336,207.134 68.244 C 207.615 68.151,207.129 68.078,206.055 68.080 C 204.980 68.083,204.587 68.159,205.181 68.249 M228.206 216.305 C 229.646 216.380,232.107 216.380,233.674 216.306 C 235.241 216.232,234.063 216.170,231.055 216.170 C 228.047 216.169,226.765 216.230,228.206 216.305 M242.188 217.700 C 242.188 217.768,242.759 218.339,243.457 218.970 L 244.727 220.117 243.579 218.848 C 242.510 217.664,242.188 217.399,242.188 217.700 M212.109 218.120 C 212.109 218.203,212.627 218.347,213.261 218.440 C 213.894 218.533,214.323 218.465,214.214 218.289 C 214.021 217.976,212.109 217.822,212.109 218.120 M210.327 219.629 L 209.180 220.898 210.449 219.751 C 211.147 219.120,211.719 218.549,211.719 218.482 C 211.719 218.180,211.396 218.446,210.327 219.629 M215.194 224.576 C 215.532 224.790,215.635 225.195,215.463 225.644 C 215.251 226.203,215.294 226.262,215.654 225.905 C 216.206 225.357,215.863 224.216,215.149 224.225 C 214.775 224.229,214.786 224.318,215.194 224.576 M226.953 227.148 C 228.120 228.330,229.163 229.297,229.270 229.297 C 229.378 229.297,228.511 228.330,227.344 227.148 C 226.177 225.967,225.134 225.000,225.027 225.000 C 224.919 225.000,225.786 225.967,226.953 227.148 M197.174 231.917 C 197.725 232.023,197.954 232.261,197.782 232.547 C 197.626 232.808,197.793 232.775,198.167 232.472 C 199.084 231.728,199.010 231.633,197.559 231.694 C 196.630 231.733,196.527 231.793,197.174 231.917 M248.094 234.570 C 248.442 235.000,248.823 235.615,248.942 235.938 C 249.124 236.435,249.162 236.429,249.188 235.900 C 249.205 235.558,248.823 234.942,248.340 234.533 C 247.468 233.795,247.466 233.796,248.094 234.570 M213.420 239.648 C 213.419 241.582,213.485 242.422,213.567 241.516 C 213.649 240.609,213.650 239.027,213.569 238.000 C 213.488 236.973,213.421 237.715,213.420 239.648 M226.172 241.211 C 227.339 242.393,228.382 243.359,228.489 243.359 C 228.596 243.359,227.729 242.393,226.563 241.211 C 225.396 240.029,224.353 239.063,224.245 239.063 C 224.138 239.063,225.005 240.029,226.172 241.211 M184.586 240.600 C 184.438 240.840,184.571 240.916,184.910 240.786 C 185.263 240.650,185.549 240.841,185.652 241.279 C 185.801 241.916,185.815 241.912,185.781 241.242 C 185.737 240.394,184.968 239.981,184.586 240.600 M169.916 248.340 L 165.039 253.320 170.020 248.443 C 172.759 245.761,175.000 243.520,175.000 243.463 C 175.000 243.182,174.446 243.714,169.916 248.340 M179.077 245.020 L 177.930 246.289 179.199 245.142 C 180.383 244.072,180.648 243.750,180.347 243.750 C 180.279 243.750,179.708 244.321,179.077 245.020 M213.763 247.266 C 213.763 248.018,213.843 248.325,213.941 247.949 C 214.039 247.573,214.039 246.958,213.941 246.582 C 213.843 246.206,213.763 246.514,213.763 247.266 M174.399 249.316 L 172.461 251.367 174.512 249.429 C 175.640 248.363,176.563 247.440,176.563 247.378 C 176.563 247.086,176.201 247.411,174.399 249.316 M181.030 248.535 L 179.883 249.805 181.152 248.657 C 182.336 247.588,182.601 247.266,182.300 247.266 C 182.232 247.266,181.661 247.837,181.030 248.535 M214.153 251.563 C 214.153 252.314,214.234 252.622,214.332 252.246 C 214.430 251.870,214.430 251.255,214.332 250.879 C 214.234 250.503,214.153 250.811,214.153 251.563 M174.602 255.371 L 170.508 259.570 174.707 255.476 C 177.017 253.224,178.906 251.334,178.906 251.277 C 178.906 250.994,178.406 251.471,174.602 255.371 M163.667 259.668 L 157.617 265.820 163.770 259.770 C 167.153 256.443,169.922 253.674,169.922 253.618 C 169.922 253.339,169.288 253.952,163.667 259.668 M202.905 262.207 L 201.758 263.477 202.991 262.364 C 204.106 261.358,204.243 261.320,204.411 261.973 C 204.563 262.564,204.605 262.536,204.642 261.816 C 204.704 260.612,204.255 260.713,202.905 262.207 M165.625 264.648 C 164.676 265.615,163.988 266.406,164.095 266.406 C 164.203 266.406,165.067 265.615,166.016 264.648 C 166.964 263.682,167.653 262.891,167.545 262.891 C 167.438 262.891,166.574 263.682,165.625 264.648 M161.889 268.848 L 160.742 270.117 162.012 268.970 C 163.195 267.900,163.461 267.578,163.159 267.578 C 163.092 267.578,162.521 268.149,161.889 268.848 M163.486 272.852 C 163.158 273.389,162.623 274.268,162.296 274.805 C 161.968 275.342,161.853 275.781,162.038 275.781 C 162.224 275.781,162.854 274.902,163.439 273.828 C 164.525 271.832,164.561 271.087,163.486 272.852 M148.654 274.588 C 147.390 275.865,146.165 276.876,145.932 276.834 C 145.699 276.792,145.550 276.972,145.602 277.234 C 145.653 277.497,145.366 277.887,144.964 278.102 C 144.562 278.318,144.115 278.806,143.972 279.188 C 143.829 279.570,145.391 278.216,147.442 276.180 C 149.493 274.143,151.172 272.429,151.172 272.371 C 151.172 272.094,150.788 272.432,148.654 274.588 M159.021 280.733 C 159.158 281.520,158.952 282.058,158.598 281.839 C 158.369 281.697,158.317 281.872,158.469 282.270 C 158.658 282.761,158.588 282.855,158.209 282.621 C 157.865 282.408,157.785 282.452,157.971 282.752 C 158.375 283.407,158.508 283.329,159.168 282.053 C 159.554 281.308,159.622 280.817,159.364 280.657 C 159.145 280.522,158.990 280.556,159.021 280.733 M232.513 289.063 C 232.513 289.814,232.593 290.122,232.691 289.746 C 232.789 289.370,232.789 288.755,232.691 288.379 C 232.593 288.003,232.513 288.311,232.513 289.063 M221.987 292.773 C 221.990 293.848,222.066 294.241,222.155 293.647 C 222.245 293.053,222.243 292.174,222.150 291.694 C 222.057 291.213,221.984 291.699,221.987 292.773 M252.044 292.969 C 252.044 293.721,252.124 294.028,252.222 293.652 C 252.321 293.276,252.321 292.661,252.222 292.285 C 252.124 291.909,252.044 292.217,252.044 292.969 M227.825 293.750 C 227.825 294.502,227.905 294.810,228.004 294.434 C 228.102 294.058,228.102 293.442,228.004 293.066 C 227.905 292.690,227.825 292.998,227.825 293.750 M232.903 293.750 C 232.903 294.502,232.984 294.810,233.082 294.434 C 233.180 294.058,233.180 293.442,233.082 293.066 C 232.984 292.690,232.903 292.998,232.903 293.750 M180.991 299.219 C 180.991 300.830,181.060 301.489,181.144 300.684 C 181.228 299.878,181.228 298.560,181.144 297.754 C 181.060 296.948,180.991 297.607,180.991 299.219 M228.224 299.023 C 228.228 299.883,228.308 300.188,228.401 299.702 C 228.495 299.217,228.491 298.513,228.393 298.140 C 228.296 297.767,228.219 298.164,228.224 299.023 M233.315 299.805 C 233.318 300.879,233.394 301.272,233.483 300.678 C 233.573 300.084,233.571 299.206,233.478 298.725 C 233.385 298.245,233.312 298.730,233.315 299.805 M221.618 302.539 C 221.620 304.258,221.688 304.912,221.771 303.994 C 221.853 303.075,221.852 301.669,221.768 300.869 C 221.684 300.069,221.617 300.820,221.618 302.539 M228.614 305.273 C 228.618 306.133,228.698 306.438,228.792 305.952 C 228.885 305.467,228.882 304.763,228.784 304.390 C 228.686 304.017,228.610 304.414,228.614 305.273 M233.719 307.422 C 233.719 308.818,233.790 309.390,233.876 308.691 C 233.963 307.993,233.963 306.851,233.876 306.152 C 233.790 305.454,233.719 306.025,233.719 307.422 M229.005 310.742 C 229.009 311.602,229.089 311.907,229.183 311.421 C 229.276 310.935,229.272 310.232,229.175 309.859 C 229.077 309.485,229.000 309.883,229.005 310.742 M187.989 313.477 C 187.993 314.336,188.073 314.642,188.167 314.156 C 188.260 313.670,188.257 312.967,188.159 312.593 C 188.061 312.220,187.985 312.617,187.989 313.477 M221.184 315.234 C 221.184 315.986,221.265 316.294,221.363 315.918 C 221.461 315.542,221.461 314.927,221.363 314.551 C 221.265 314.175,221.184 314.482,221.184 315.234 M233.684 326.172 C 233.684 326.924,233.765 327.231,233.863 326.855 C 233.961 326.479,233.961 325.864,233.863 325.488 C 233.765 325.112,233.684 325.420,233.684 326.172 " stroke="none" fill="#494748" fill-rule="evenodd"></path><path id="path4" d="M198.047 67.969 C 198.047 68.189,199.154 68.359,200.586 68.359 C 202.018 68.359,203.125 68.189,203.125 67.969 C 203.125 67.748,202.018 67.578,200.586 67.578 C 199.154 67.578,198.047 67.748,198.047 67.969 M189.453 68.858 C 188.701 69.069,188.289 69.316,188.538 69.407 C 189.158 69.634,191.671 68.955,191.199 68.688 C 190.991 68.570,190.205 68.647,189.453 68.858 M205.501 68.499 C 205.915 68.855,208.594 69.051,208.594 68.725 C 208.594 68.524,207.861 68.359,206.966 68.359 C 206.071 68.359,205.412 68.422,205.501 68.499 M213.050 69.964 C 214.320 70.374,215.436 70.632,215.530 70.537 C 215.726 70.341,211.795 69.120,211.160 69.180 C 210.930 69.201,211.781 69.554,213.050 69.964 M185.547 69.981 C 185.547 70.386,186.259 70.367,187.305 69.934 C 187.939 69.672,187.847 69.615,186.816 69.631 C 186.118 69.641,185.547 69.799,185.547 69.981 M183.008 70.769 C 181.198 71.379,179.217 72.316,179.384 72.483 C 179.467 72.566,180.843 72.117,182.443 71.486 C 185.177 70.408,185.574 69.905,183.008 70.769 M216.564 71.032 C 216.717 71.281,217.104 71.484,217.422 71.484 C 218.068 71.484,223.336 74.000,225.533 75.358 C 226.314 75.841,226.953 76.139,226.953 76.020 C 226.953 75.601,222.710 73.099,220.260 72.075 C 216.891 70.666,216.220 70.476,216.564 71.032 M176.735 73.613 C 176.003 74.160,176.008 74.172,176.862 73.957 C 177.348 73.834,177.842 73.579,177.959 73.390 C 178.289 72.856,177.575 72.986,176.735 73.613 M173.633 75.397 C 170.959 76.999,170.291 77.444,169.538 78.125 C 169.182 78.447,168.279 79.185,167.533 79.765 C 165.951 80.993,161.722 85.167,161.713 85.509 C 161.709 85.637,161.184 86.357,160.545 87.109 C 158.845 89.110,158.791 89.180,158.021 90.354 C 156.409 92.815,157.854 91.564,159.889 88.739 C 162.697 84.839,168.492 79.241,172.266 76.782 C 175.191 74.876,176.093 74.215,175.762 74.222 C 175.665 74.224,174.707 74.753,173.633 75.397 M227.344 76.341 C 227.344 76.433,227.870 76.884,228.513 77.342 C 229.413 77.983,229.627 78.031,229.443 77.553 C 229.147 76.780,227.344 75.739,227.344 76.341 M234.935 82.669 C 235.715 83.450,236.453 83.990,236.574 83.869 C 236.819 83.624,234.368 81.279,233.848 81.261 C 233.665 81.255,234.154 81.889,234.935 82.669 M240.185 88.477 C 240.752 89.633,241.770 90.879,241.783 90.430 C 241.788 90.215,241.345 89.512,240.798 88.867 C 240.250 88.223,239.975 88.047,240.185 88.477 M242.760 92.480 C 243.101 93.179,243.463 93.750,243.565 93.750 C 243.953 93.750,243.703 93.128,242.937 92.188 L 242.140 91.211 242.760 92.480 M243.750 94.457 C 243.750 94.630,244.008 95.114,244.324 95.531 C 244.909 96.305,245.112 95.871,244.685 94.759 C 244.440 94.120,243.750 93.897,243.750 94.457 M154.421 96.963 C 153.834 97.734,152.335 101.954,152.650 101.947 C 152.953 101.941,155.138 96.805,154.927 96.594 C 154.857 96.523,154.629 96.689,154.421 96.963 M200.298 99.495 C 200.783 99.588,201.487 99.585,201.860 99.487 C 202.233 99.389,201.836 99.313,200.977 99.317 C 200.117 99.322,199.812 99.402,200.298 99.495 M194.717 100.016 C 194.552 100.282,194.847 100.330,195.573 100.156 C 197.069 99.796,197.211 99.609,195.987 99.609 C 195.426 99.609,194.855 99.792,194.717 100.016 M208.790 101.565 C 209.052 101.988,211.328 103.256,211.328 102.978 C 211.328 102.887,210.702 102.442,209.937 101.991 C 209.173 101.540,208.656 101.348,208.790 101.565 M247.406 102.930 C 247.523 103.359,247.734 104.194,247.875 104.785 C 248.016 105.376,248.264 105.859,248.426 105.859 C 248.868 105.859,248.404 103.821,247.759 102.930 L 247.193 102.148 247.406 102.930 M212.499 104.491 C 213.002 105.027,213.504 105.377,213.612 105.268 C 213.833 105.047,212.303 103.516,211.862 103.516 C 211.708 103.516,211.995 103.954,212.499 104.491 M151.175 106.630 C 150.933 107.527,150.807 108.468,150.895 108.720 C 150.983 108.973,151.244 108.303,151.476 107.232 C 151.995 104.833,151.776 104.396,151.175 106.630 M214.776 106.886 C 215.640 108.461,216.511 109.317,215.842 107.935 C 215.511 107.250,215.045 106.570,214.808 106.423 C 214.498 106.232,214.489 106.363,214.776 106.886 M183.008 109.766 C 182.654 110.450,182.452 111.098,182.560 111.205 C 182.667 111.313,183.044 110.841,183.398 110.156 C 183.752 109.472,183.954 108.824,183.847 108.716 C 183.739 108.609,183.362 109.081,183.008 109.766 M249.288 111.816 C 249.469 113.159,249.690 114.434,249.778 114.648 C 250.035 115.276,250.014 112.442,249.749 110.840 C 249.340 108.365,248.936 109.219,249.288 111.816 M149.808 115.210 C 149.650 116.358,149.710 117.425,149.955 117.846 C 150.274 118.394,150.370 117.958,150.379 115.918 C 150.393 112.802,150.176 112.533,149.808 115.210 M218.484 117.578 C 218.484 118.975,218.555 119.546,218.642 118.848 C 218.729 118.149,218.729 117.007,218.642 116.309 C 218.555 115.610,218.484 116.182,218.484 117.578 M249.654 119.011 C 249.630 121.196,249.492 123.290,249.348 123.665 C 249.187 124.084,249.240 124.252,249.485 124.101 C 250.032 123.762,250.403 118.517,250.016 116.602 C 249.766 115.368,249.690 115.875,249.654 119.011 M181.371 118.164 C 181.373 119.453,181.446 119.933,181.533 119.231 C 181.620 118.529,181.618 117.475,181.529 116.888 C 181.440 116.301,181.369 116.875,181.371 118.164 M150.050 121.172 C 150.007 123.449,150.653 128.016,150.969 127.664 C 151.031 127.595,150.861 125.518,150.591 123.047 C 150.142 118.929,150.096 118.773,150.050 121.172 M217.832 121.575 C 217.706 122.055,217.774 122.617,217.982 122.825 C 218.225 123.069,218.359 122.758,218.359 121.953 C 218.359 120.492,218.154 120.345,217.832 121.575 M183.203 126.375 C 183.203 127.553,187.570 132.319,189.899 133.682 L 191.211 134.450 190.039 133.534 C 187.552 131.592,185.449 129.425,184.504 127.832 C 183.596 126.301,183.203 125.861,183.203 126.375 M248.655 127.951 C 248.507 128.735,248.465 129.455,248.561 129.550 C 248.656 129.646,248.855 129.083,249.002 128.299 C 249.149 127.515,249.191 126.795,249.096 126.700 C 249.000 126.604,248.802 127.167,248.655 127.951 M151.423 130.078 C 151.549 131.045,151.823 132.159,152.030 132.553 C 152.742 133.908,152.701 132.972,151.947 130.648 C 151.212 128.383,151.198 128.368,151.423 130.078 M246.589 134.768 C 245.924 136.702,245.527 138.195,245.707 138.084 C 245.886 137.973,246.329 137.049,246.692 136.031 C 247.055 135.013,247.451 133.916,247.571 133.594 C 247.819 132.932,248.054 131.250,247.898 131.250 C 247.842 131.250,247.253 132.833,246.589 134.768 M208.105 134.402 C 207.300 134.827,206.641 135.262,206.641 135.369 C 206.641 135.475,207.344 135.204,208.203 134.766 C 209.063 134.327,209.766 133.884,209.766 133.781 C 209.766 133.526,209.763 133.527,208.105 134.402 M203.613 135.823 C 203.130 135.916,202.734 136.141,202.734 136.324 C 202.734 136.622,205.428 136.079,205.827 135.701 C 206.019 135.519,204.858 135.583,203.613 135.823 M196.875 136.328 C 196.875 136.543,197.622 136.701,198.535 136.680 C 199.945 136.647,200.048 136.594,199.219 136.328 C 197.813 135.878,196.875 135.878,196.875 136.328 M153.906 137.422 C 153.906 138.174,157.781 145.083,158.052 144.813 C 158.134 144.730,157.411 143.275,156.445 141.579 C 155.478 139.883,154.688 138.282,154.688 138.021 C 154.688 137.760,154.512 137.437,154.297 137.305 C 154.082 137.172,153.906 137.225,153.906 137.422 M244.094 140.723 C 243.838 141.206,243.360 142.041,243.032 142.578 L 242.435 143.555 243.294 142.686 C 244.091 141.879,245.120 139.844,244.731 139.844 C 244.636 139.844,244.349 140.239,244.094 140.723 M240.444 146.907 C 239.401 148.715,238.207 150.811,237.790 151.563 L 237.032 152.930 237.846 151.953 C 238.293 151.416,238.762 150.669,238.887 150.293 C 239.013 149.917,239.258 149.609,239.432 149.609 C 239.606 149.609,239.979 149.038,240.261 148.340 C 240.542 147.642,241.195 146.505,241.712 145.813 C 242.229 145.122,242.581 144.345,242.495 144.087 C 242.409 143.829,241.486 145.098,240.444 146.907 M160.879 149.883 C 161.055 150.269,161.443 151.157,161.740 151.855 C 162.037 152.554,162.418 153.125,162.586 153.125 C 162.753 153.125,162.891 153.345,162.893 153.613 C 162.894 153.882,163.349 154.629,163.904 155.273 C 164.815 156.332,164.790 156.219,163.638 154.102 C 162.936 152.813,162.119 151.278,161.820 150.691 C 161.210 149.490,160.370 148.769,160.879 149.883 M235.352 155.859 C 235.018 156.504,234.833 157.031,234.941 157.031 C 235.048 157.031,235.409 156.504,235.742 155.859 C 236.075 155.215,236.260 154.688,236.153 154.688 C 236.045 154.688,235.685 155.215,235.352 155.859 M164.844 156.988 C 164.844 157.179,165.204 157.750,165.644 158.258 L 166.445 159.180 165.830 157.910 C 165.224 156.661,164.844 156.305,164.844 156.988 M234.063 157.891 C 233.805 158.148,233.594 158.497,233.594 158.665 C 233.594 158.833,232.891 160.119,232.031 161.523 C 231.172 162.927,230.470 164.205,230.471 164.362 C 230.474 164.820,232.392 162.351,232.408 161.869 C 232.416 161.630,232.770 160.991,233.195 160.450 C 233.888 159.570,234.912 157.422,234.639 157.422 C 234.580 157.422,234.320 157.633,234.063 157.891 M168.359 162.646 C 168.359 162.798,168.746 163.662,169.220 164.566 C 169.693 165.471,170.044 166.343,170.001 166.504 C 169.957 166.665,170.071 166.797,170.253 166.797 C 170.435 166.797,170.897 167.490,171.279 168.336 C 171.661 169.183,172.229 169.974,172.542 170.094 C 172.961 170.255,172.904 169.978,172.329 169.043 C 171.899 168.345,170.903 166.631,170.115 165.234 C 168.609 162.565,168.359 162.196,168.359 162.646 M226.601 170.921 C 226.150 171.685,225.781 172.405,225.781 172.521 C 225.781 172.636,225.459 173.198,225.065 173.768 C 223.634 175.840,221.826 179.297,222.174 179.297 C 222.370 179.297,222.745 178.826,223.007 178.251 C 223.269 177.676,224.220 175.962,225.119 174.443 C 226.749 171.690,227.821 169.531,227.559 169.531 C 227.483 169.531,227.052 170.157,226.601 170.921 M173.531 172.158 C 173.784 172.850,174.222 173.505,174.505 173.614 C 175.075 173.832,174.749 173.074,173.673 171.680 C 173.113 170.954,173.103 170.988,173.531 172.158 M177.153 178.302 C 177.903 179.473,178.516 180.515,178.516 180.617 C 178.516 180.939,181.332 185.547,181.528 185.547 C 181.932 185.547,176.489 176.188,176.079 176.179 C 175.921 176.175,176.404 177.130,177.153 178.302 M220.461 181.738 C 219.117 184.020,219.029 184.214,219.714 183.398 C 220.507 182.453,221.191 181.250,220.935 181.250 C 220.833 181.250,220.620 181.470,220.461 181.738 M217.945 185.997 C 217.472 186.931,216.738 188.189,216.313 188.792 C 215.716 189.639,215.561 190.938,216.145 190.202 C 216.789 189.390,219.165 184.660,219.008 184.503 C 218.896 184.391,218.418 185.063,217.945 185.997 M182.372 187.305 C 182.583 187.734,183.042 188.438,183.391 188.867 L 184.027 189.648 183.644 188.867 C 183.433 188.438,182.974 187.734,182.624 187.305 L 181.988 186.523 182.372 187.305 M183.984 190.230 C 183.984 190.514,184.416 191.313,184.944 192.005 C 185.472 192.697,185.794 193.373,185.660 193.506 C 185.526 193.640,185.622 193.750,185.872 193.750 C 186.123 193.750,186.328 193.975,186.328 194.250 C 186.328 194.680,188.569 198.436,190.152 200.660 C 190.940 201.766,187.531 195.409,185.818 192.578 C 184.016 189.598,183.984 189.558,183.984 190.230 M214.094 192.722 C 213.183 194.196,213.105 194.531,213.672 194.531 C 213.887 194.531,214.026 194.399,213.982 194.238 C 213.938 194.077,214.206 193.374,214.578 192.676 C 215.465 191.010,215.133 191.042,214.094 192.722 M212.649 195.410 C 212.491 195.679,212.085 196.331,211.747 196.860 C 211.365 197.458,211.318 197.707,211.624 197.519 C 212.129 197.207,213.445 194.922,213.119 194.922 C 213.019 194.922,212.807 195.142,212.649 195.410 M209.851 200.098 C 209.213 201.226,208.299 202.808,207.822 203.613 C 207.345 204.419,207.120 205.078,207.322 205.078 C 207.524 205.078,208.024 204.419,208.433 203.613 C 208.842 202.808,209.480 201.688,209.852 201.125 C 210.562 200.049,211.413 198.047,211.160 198.047 C 211.079 198.047,210.490 198.970,209.851 200.098 M190.899 202.331 C 191.010 202.754,191.372 203.325,191.704 203.600 C 192.215 204.024,192.207 203.905,191.652 202.832 C 190.910 201.397,190.601 201.192,190.899 202.331 M192.452 204.923 C 192.824 205.893,195.161 209.829,195.907 210.742 C 196.258 211.172,195.973 210.469,195.274 209.180 C 194.575 207.891,193.759 206.356,193.461 205.769 C 192.847 204.562,192.060 203.901,192.452 204.923 M203.001 212.113 C 200.261 216.931,199.931 217.283,199.250 216.113 C 199.031 215.737,198.847 215.616,198.840 215.843 C 198.819 216.577,199.791 217.572,200.241 217.278 C 200.482 217.121,201.772 215.059,203.110 212.695 C 204.447 210.332,205.722 208.179,205.944 207.910 C 206.165 207.642,206.192 207.423,206.005 207.425 C 205.817 207.427,204.466 209.536,203.001 212.113 M196.893 212.695 C 196.884 213.276,197.581 214.268,197.826 214.023 C 197.943 213.906,197.783 213.471,197.469 213.057 C 197.156 212.643,196.897 212.480,196.893 212.695 " stroke="none" fill="#c88780" fill-rule="evenodd"></path></g></svg>